<svg width="24" height="24" viewBox="0 0 24 24" fill="none" xmlns="http://www.w3.org/2000/svg">
<path d="M12 22C10.75 22 9.57917 21.7625 8.48751 21.2875C7.39584 20.8125 6.44584 20.1708 5.63751 19.3625C4.82917 18.5542 4.18751 17.6042 3.71251 16.5125C3.23751 15.4208 3.00001 14.25 3.00001 13C3.00001 11.75 3.23751 10.5792 3.71251 9.48751C4.18751 8.39584 4.82917 7.44584 5.63751 6.63751C6.44584 5.82917 7.39584 5.18751 8.48751 4.71251C9.57917 4.23751 10.75 4.00001 12 4.00001C13.25 4.00001 14.4208 4.23751 15.5125 4.71251C16.6042 5.18751 17.5542 5.82917 18.3625 6.63751C19.1708 7.44584 19.8125 8.39584 20.2875 9.48751C20.7625 10.5792 21 11.75 21 13C21 14.25 20.7625 15.4208 20.2875 16.5125C19.8125 17.6042 19.1708 18.5542 18.3625 19.3625C17.5542 20.1708 16.6042 20.8125 15.5125 21.2875C14.4208 21.7625 13.25 22 12 22ZM14.8 17.2L16.2 15.8L13 12.6V8.00001H11V13.4L14.8 17.2ZM5.60001 2.35001L7.00001 3.75001L2.75001 8.00001L1.35001 6.60001L5.60001 2.35001ZM18.4 2.35001L22.65 6.60001L21.25 8.00001L17 3.75001L18.4 2.35001Z" fill="#1D1B20"/>
</svg>
